IKResults
version=1
nRows=10
nColumns=67
inDegrees=yes

Units are S.I. units (second, meters, Newtons, ...)
Angles are in degrees.

endheader
time	pelvis_tilt	pelvis_list	pelvis_rotation	pelvis_tx	pelvis_ty	pelvis_tz	hip_flexion_r	hip_adduction_r	hip_rotation_r	knee_angle_r	knee_rot_r	knee_adduc_r	ankle_angle_r	ankle_rot_r	ankle_add_r	subtalar_angle_r	mtp_angle_r	mtp_rot_r	mtp_add_r	hip_flexion_l	hip_adduction_l	hip_rotation_l	knee_angle_l	knee_rot_l	knee_adduc_l	ankle_angle_l	ankle_rot_l	ankle_add_l	subtalar_angle_l	mtp_angle_l	mtp_rot_l	mtp_add_l	lumbar_extension	lumbar_bending	lumbar_rotation	neck_flexion	neck_lateral_bending	neck_rotation	arm_flex_r	arm_add_r	arm_rot_r	elbow_flex_r	elbow_rot_r	elbow_add_r	pro_sup_r	wrist_flex_r	wrist_adduc_r	wrist_rot_r	wrist_dev_r	hand_finger_flex_r	hand_finger_adduc_r	hand_finger_rot_r	arm_flex_l	arm_add_l	arm_rot_l	elbow_flex_l	elbow_rot_l	elbow_add_l	pro_sup_l	wrist_flex_l	wrist_adduc_l	wrist_rot_l	wrist_dev_l	hand_finger_flex_l	hand_finger_adduc_l	hand_finger_rot_l
      1.25000000	     19.24848121	      4.31261385	      2.11154427	     -0.28298937	      0.73068708	      0.55527341	      8.23274876	     -3.66257096	      0.35791889	    -12.77938837	     -5.00000000	     -0.74949174	      5.60727627	     -4.99342428	      5.00000000	      3.17245700	     18.17402202	     -1.07504142	      0.08476285	    -41.95639814	      2.01341607	      0.16395571	    -11.50984965	      3.12360377	      1.41191291	      8.63571557	      0.60922379	     -3.00006168	     15.26115124	     26.00896872	     -1.36785657	      0.97269708	    -35.89714008	     -4.09830824	    -10.39321828	      0.00000000	      0.00000000	      0.00000000	      0.00000000	      0.00000000	      0.00000000	      0.00000000	      0.00000000	      0.00000000	     -0.00042092	      0.00000000	      0.00000000	      0.00000000	      0.00000000	      0.00000000	      0.00000000	      0.00000000	      0.00000000	      0.00000000	      0.00000000	      0.00000000	      0.00000000	      0.00000000	      0.00000000	      0.00000000	      0.00000000	      0.00000000	      0.00000000	      0.00000000	      0.00000000	      0.00000000
      1.25500000	     19.18523618	      3.80763947	      2.03021767	     -0.27452863	      0.73003767	      0.55585130	      8.18348286	     -2.78892283	      0.96533017	    -13.33673136	     -5.00000000	     -0.99577175	      3.95313209	     -5.00000000	      5.00000000	      2.73807750	     16.53804217	     -1.77077215	     -0.49620473	    -42.02552555	      1.45153188	     -0.73733005	    -12.27890699	      3.00711170	      1.53320005	      6.79159279	      1.87289527	     -3.88083967	     17.67518288	     30.87521244	     -1.95785655	     -1.12801351	    -35.44830707	     -3.45519733	    -10.27733234	      0.00000000	      0.00000000	      0.00000000	      0.00000000	      0.00000000	      0.00000000	      0.00000000	      0.00000000	      0.00000000	     -0.00042092	      0.00000000	      0.00000000	      0.00000000	      0.00000000	      0.00000000	      0.00000000	      0.00000000	      0.00000000	      0.00000000	      0.00000000	      0.00000000	      0.00000000	      0.00000000	      0.00000000	      0.00000000	      0.00000000	      0.00000000	      0.00000000	      0.00000000	      0.00000000	      0.00000000
      1.26000000	     19.05029074	      3.41142495	      2.03396015	     -0.26637442	      0.72941486	      0.55636755	      8.24935596	     -2.02365790	      1.51792270	    -13.96293711	     -5.00000000	     -1.31863643	      2.29017804	     -5.00000000	      5.00000000	      2.67952912	     16.37509214	     -1.83109383	     -0.55624592	    -41.80130863	      0.96063832	     -0.53600082	    -13.45963792	      2.99753557	      1.40925098	      6.16864664	      1.79691680	     -3.29770395	     17.54110475	     31.20266626	     -1.99925046	     -1.26669632	    -35.00831389	     -2.92165190	    -10.27936075	      0.00000000	      0.00000000	      0.00000000	      0.00000000	      0.00000000	      0.00000000	      0.00000000	      0.00000000	      0.00000000	     -0.00042092	      0.00000000	      0.00000000	      0.00000000	      0.00000000	      0.00000000	      0.00000000	      0.00000000	      0.00000000	      0.00000000	      0.00000000	      0.00000000	      0.00000000	      0.00000000	      0.00000000	      0.00000000	      0.00000000	      0.00000000	      0.00000000	      0.00000000	      0.00000000	      0.00000000
      1.26500000	     18.96255378	      2.98460480	      1.99712140	     -0.25831053	      0.72894735	      0.55687043	      8.31689028	     -1.26932190	      1.98448197	    -14.73276326	     -5.00000000	     -1.55005906	      1.00481105	     -5.00000000	      5.00000000	      2.41161665	     16.24387007	     -1.90477454	     -0.59940889	    -41.50568169	      0.46482351	     -0.58244191	    -14.80645819	      3.08217809	      1.31071826	      5.20051230	      1.68232586	     -2.95090157	     17.63591589	     31.48511697	     -2.00000000	     -1.39171851	    -34.65068525	     -2.35113247	    -10.28547668	      0.00000000	      0.00000000	      0.00000000	      0.00000000	      0.00000000	      0.00000000	      0.00000000	      0.00000000	      0.00000000	     -0.00042092	      0.00000000	      0.00000000	      0.00000000	      0.00000000	      0.00000000	      0.00000000	      0.00000000	      0.00000000	      0.00000000	      0.00000000	      0.00000000	      0.00000000	      0.00000000	      0.00000000	      0.00000000	      0.00000000	      0.00000000	      0.00000000	      0.00000000	      0.00000000	      0.00000000
      1.27000000	     18.86100016	      2.48869581	      1.96476957	     -0.25031468	      0.72860759	      0.55748706	      8.44361606	     -0.43599381	      2.49428783	    -15.61420480	     -5.00000000	     -1.74233464	     -0.22974859	     -5.00000000	      5.00000000	      1.92906780	     16.11122173	     -2.00000000	     -0.63876464	    -41.09112594	     -0.09404856	     -0.71464695	    -16.28934021	      3.26051375	      1.24422638	      4.06847732	      1.57376354	     -2.66539747	     17.79814229	     31.79762563	     -1.99305406	     -1.53424671	    -34.28507363	     -1.76292335	    -10.18575044	      0.00000000	      0.00000000	      0.00000000	      0.00000000	      0.00000000	      0.00000000	      0.00000000	      0.00000000	      0.00000000	     -0.00042092	      0.00000000	      0.00000000	      0.00000000	      0.00000000	      0.00000000	      0.00000000	      0.00000000	      0.00000000	      0.00000000	      0.00000000	      0.00000000	      0.00000000	      0.00000000	      0.00000000	      0.00000000	      0.00000000	      0.00000000	      0.00000000	      0.00000000	      0.00000000	      0.00000000
      1.27500000	     18.66937521	      1.89448947	      1.94607501	     -0.24241998	      0.72832886	      0.55793751	      8.75196602	      0.51042124	      3.14868863	    -16.68449248	     -5.00000000	     -1.93031053	     -1.31667988	     -5.00000000	      5.00000000	      0.98232914	     15.93531494	     -2.00000000	     -0.68403914	    -40.46552897	     -0.63971431	     -0.84769107	    -17.93074335	      3.54842453	      1.31652786	      2.76401792	      1.41507587	     -2.36328942	     18.04715080	     32.28932135	     -1.96261160	     -1.76283813	    -33.86088464	     -1.04530944	     -9.95235710	      0.00000000	      0.00000000	      0.00000000	      0.00000000	      0.00000000	      0.00000000	      0.00000000	      0.00000000	      0.00000000	     -0.00042092	      0.00000000	      0.00000000	      0.00000000	      0.00000000	      0.00000000	      0.00000000	      0.00000000	      0.00000000	      0.00000000	      0.00000000	      0.00000000	      0.00000000	      0.00000000	      0.00000000	      0.00000000	      0.00000000	      0.00000000	      0.00000000	      0.00000000	      0.00000000	      0.00000000
      1.28000000	     18.10814407	      1.58199883	      1.56153269	     -0.23521779	      0.72765257	      0.55856324	      9.77461329	      0.93083945	      5.70496901	    -18.34494497	     -5.00000000	     -0.99251266	     -1.73251566	     -5.00000000	      5.00000000	     -2.94165258	     15.05848154	     -2.00000000	     -0.90439797	    -39.12637611	     -0.65200928	     -0.88102634	    -20.05270838	      4.78607632	      1.37675007	      1.75394362	      0.95049256	     -1.86661332	     18.86309015	     35.07847355	     -1.70266954	     -2.00000000	    -33.18361219	     -0.74965351	     -9.76019526	      0.00000000	      0.00000000	      0.00000000	      0.00000000	      0.00000000	      0.00000000	      0.00000000	      0.00000000	      0.00000000	     -0.00042092	      0.00000000	      0.00000000	      0.00000000	      0.00000000	      0.00000000	      0.00000000	      0.00000000	      0.00000000	      0.00000000	      0.00000000	      0.00000000	      0.00000000	      0.00000000	      0.00000000	      0.00000000	      0.00000000	      0.00000000	      0.00000000	      0.00000000	      0.00000000	      0.00000000
      1.28500000	     18.11043602	      0.95975120	      1.52952506	     -0.22757572	      0.72776159	      0.55903089	      9.95243894	      1.83814630	      5.71540228	    -19.67681483	     -5.00000000	     -1.10964884	     -1.92941932	     -5.00000000	      5.00000000	     -3.24202660	     14.82948343	     -2.00000000	     -0.97443949	    -38.49231587	     -1.29816443	     -0.96625929	    -21.95485135	      5.00000000	      1.27056464	      0.09858301	      0.87564073	     -1.16162127	     18.82675613	     35.63873088	     -1.61592070	     -2.00000000	    -33.02856023	      0.00394267	     -9.58411205	      0.00000000	      0.00000000	      0.00000000	      0.00000000	      0.00000000	      0.00000000	      0.00000000	      0.00000000	      0.00000000	     -0.00042092	      0.00000000	      0.00000000	      0.00000000	      0.00000000	      0.00000000	      0.00000000	      0.00000000	      0.00000000	      0.00000000	      0.00000000	      0.00000000	      0.00000000	      0.00000000	      0.00000000	      0.00000000	      0.00000000	      0.00000000	      0.00000000	      0.00000000	      0.00000000	      0.00000000
      1.29000000	     18.42172385	      0.52816157	      1.38081767	     -0.22060982	      0.72812690	      0.55923603	      9.90909492	      2.39737122	      5.77772434	    -21.12782964	     -5.00000000	     -0.98437940	     -2.02901725	     -5.00000000	      5.00000000	     -3.24042592	     14.80068538	     -2.00000000	     -0.98298619	    -37.98839978	     -1.52689175	     -1.03207677	    -24.13076029	      5.00000000	      1.48066344	     -0.88504493	      0.78360464	     -0.81787414	     18.82461115	     35.70786996	     -1.60293233	     -2.00000000	    -33.47232514	      0.60757058	     -9.57999701	      0.00000000	      0.00000000	      0.00000000	      0.00000000	      0.00000000	      0.00000000	      0.00000000	      0.00000000	      0.00000000	     -0.00042092	      0.00000000	      0.00000000	      0.00000000	      0.00000000	      0.00000000	      0.00000000	      0.00000000	      0.00000000	      0.00000000	      0.00000000	      0.00000000	      0.00000000	      0.00000000	      0.00000000	      0.00000000	      0.00000000	      0.00000000	      0.00000000	      0.00000000	      0.00000000	      0.00000000
      1.29500000	     17.44683107	     -0.11516047	      1.45941383	     -0.21306775	      0.72745285	      0.55967646	     11.24981476	      3.09128027	      6.66829034	    -22.69473135	     -5.00000000	     -0.28748921	     -2.14897606	     -5.00000000	      5.00000000	     -5.23027333	     13.96247100	     -2.00000000	     -1.25074329	    -35.87896074	     -2.43267349	     -1.08761735	    -26.77046733	      5.00000000	      1.06405825	     -2.20040951	      0.36436347	      0.64650686	     18.62534080	     37.71336497	     -1.14868533	     -2.00000000	    -32.20042271	      1.38596943	     -9.47746439	      0.00000000	      0.00000000	      0.00000000	      0.00000000	      0.00000000	      0.00000000	      0.00000000	      0.00000000	      0.00000000	     -0.00042092	      0.00000000	      0.00000000	      0.00000000	      0.00000000	      0.00000000	      0.00000000	      0.00000000	      0.00000000	      0.00000000	      0.00000000	      0.00000000	      0.00000000	      0.00000000	      0.00000000	      0.00000000	      0.00000000	      0.00000000	      0.00000000	      0.00000000	      0.00000000	      0.00000000
